<?xml version="1.0" standalone="no"?>
<!DOCTYPE svg PUBLIC "-//W3C//DTD SVG 20010904//EN"
 "http://www.w3.org/TR/2001/REC-SVG-20010904/DTD/svg10.dtd">
<svg version="1.0" xmlns="http://www.w3.org/2000/svg"
 width="100.000000pt" height="100.000000pt" viewBox="0 0 100.000000 100.000000"
 preserveAspectRatio="xMidYMid meet">
<metadata>
Created by potrace 1.11, written by Peter Selinger 2001-2013
</metadata>
<g transform="translate(0.000000,100.000000) scale(0.100000,-0.100000)"
fill="#000000" stroke="none">
<path d="M71 883 c0 -10 15 -65 32 -122 31 -99 33 -104 60 -105 16 -1 31 2 33
6 3 4 -10 60 -27 123 l-32 115 -34 0 c-25 0 -33 -4 -32 -17z"/>
<path d="M430 786 c-18 -63 -32 -119 -31 -123 0 -4 12 -8 26 -9 30 -1 37 10
56 84 7 28 16 52 19 52 4 0 16 -30 26 -67 19 -66 21 -68 49 -65 17 2 31 5 32
6 2 2 -12 54 -30 117 l-34 114 -40 3 -40 3 -33 -115z"/>
<path d="M865 887 c-8 -19 -64 -227 -62 -228 1 -1 15 -2 30 -3 35 -2 38 3 73
124 14 52 29 101 31 108 4 8 -6 12 -31 12 -20 0 -39 -6 -41 -13z"/>
<path d="M261 760 c-7 -5 -31 -80 -31 -98 0 -12 127 -15 133 -4 3 4 -3 29 -12
56 -15 46 -18 49 -49 50 -19 1 -37 -1 -41 -4z"/>
<path d="M671 760 c-7 -5 -31 -80 -31 -98 0 -11 127 -15 134 -3 2 3 -3 28 -12
55 -16 46 -20 49 -50 50 -19 1 -37 -1 -41 -4z"/>
<path d="M300 612 c-72 -73 -39 -242 48 -242 50 0 64 19 60 80 -3 52 -5 55
-30 58 -16 2 -28 -1 -28 -7 0 -6 9 -11 21 -11 18 0 20 -5 17 -47 -3 -45 -5
-48 -34 -51 -50 -5 -69 26 -69 113 0 58 4 77 19 94 23 25 53 27 78 4 10 -9 18
-11 18 -5 0 13 -39 42 -58 42 -7 0 -26 -13 -42 -28z"/>
<path d="M471 612 c-69 -69 -37 -242 45 -242 52 0 64 15 64 80 0 60 0 60 -30
60 -16 0 -30 -4 -30 -10 0 -5 9 -10 20 -10 17 0 20 -7 20 -50 l0 -50 -33 0
c-48 0 -68 27 -74 97 -8 99 46 164 98 117 10 -9 19 -12 19 -6 0 13 -39 42 -58
42 -7 0 -26 -12 -41 -28z"/>
<path d="M906 619 c-17 -13 -26 -30 -26 -48 0 -28 10 -41 68 -87 38 -30 42
-66 10 -88 -20 -14 -24 -14 -46 0 -27 18 -41 12 -22 -11 26 -32 93 -13 104 30
8 33 -11 68 -54 97 -28 19 -35 30 -35 57 0 43 25 62 56 43 27 -17 40 -5 15 14
-26 19 -39 18 -70 -7z"/>
<path d="M80 516 c0 -92 -3 -116 -16 -127 -14 -11 -19 -10 -34 8 -20 26 -34
19 -19 -8 13 -26 65 -25 79 0 13 26 13 241 0 241 -6 0 -10 -45 -10 -114z"/>
<path d="M142 504 c-18 -69 -31 -129 -28 -131 5 -6 26 40 26 58 0 5 20 9 44 9
42 0 44 -1 50 -35 4 -19 12 -35 17 -35 6 0 9 6 7 13 -2 6 -16 65 -32 130 -16
64 -34 117 -40 117 -6 0 -26 -57 -44 -126z m71 -16 c7 -27 6 -28 -29 -28 -25
0 -35 4 -31 13 2 6 10 39 18 71 l13 60 11 -45 c7 -24 15 -56 18 -71z"/>
<path d="M620 500 l0 -130 50 0 c28 0 50 5 50 10 0 6 -20 10 -46 10 l-45 0 3
53 3 52 40 6 c42 7 39 10 -10 13 -28 1 -30 3 -33 49 l-3 47 40 0 c22 0 43 5
46 10 4 6 -13 10 -44 10 l-51 0 0 -130z"/>
<path d="M746 621 c-9 -14 -3 -241 6 -247 4 -3 8 24 8 60 0 90 20 89 62 -1 17
-38 32 -63 35 -57 2 6 -7 36 -20 66 l-24 54 24 17 c29 22 32 76 5 100 -20 18
-87 23 -96 8z m92 -54 c3 -31 0 -39 -20 -46 -42 -16 -53 -8 -56 43 l-3 47 38
-3 c36 -3 38 -5 41 -41z"/>
<path d="M135 341 c-6 -10 -74 -230 -71 -232 0 -1 16 -2 34 -3 21 -2 36 3 42
13 9 19 60 203 60 220 0 13 -56 15 -65 2z"/>
<path d="M397 343 c-5 -9 53 -210 65 -229 7 -11 74 -13 81 -3 4 5 67 225 67
234 0 3 -14 5 -32 3 -31 -3 -34 -7 -54 -73 l-22 -69 -18 59 c-10 33 -22 66
-27 73 -10 13 -53 17 -60 5z"/>
<path d="M806 342 c-2 -4 10 -59 27 -122 31 -110 34 -115 61 -118 38 -5 48 8
37 44 -5 16 -21 68 -36 117 -25 83 -27 87 -55 87 -16 0 -31 -4 -34 -8z"/>
<path d="M236 313 c16 -67 22 -73 63 -73 37 0 39 1 50 44 6 25 11 47 11 50 0
3 -29 6 -65 6 l-65 0 6 -27z"/>
<path d="M640 338 c0 -2 6 -23 14 -48 12 -43 15 -45 53 -48 38 -3 40 -2 51 36
19 61 18 62 -53 62 -36 0 -65 -1 -65 -2z"/>
</g>
</svg>
